<?xml version="1.0" encoding="UTF-8"?>
<svg xmlns="http://www.w3.org/2000/svg" xmlns:xlink="http://www.w3.org/1999/xlink" width="24px" height="24px" viewBox="0 0 24 24" version="1.1">
<g id="surface1">
<path style=" stroke:none;fill-rule:nonzero;fill:rgb(0%,0%,0%);fill-opacity:1;" d="M 19.117188 3.648438 C 19.054688 3.585938 18.988281 3.539062 18.917969 3.511719 C 18.855469 3.484375 18.78125 3.46875 18.695312 3.46875 C 18.609375 3.46875 18.53125 3.484375 18.46875 3.511719 C 18.398438 3.539062 18.335938 3.585938 18.273438 3.648438 L 18.269531 3.652344 L 17.058594 4.859375 C 16.875 5.039062 16.597656 5.058594 16.390625 4.921875 C 16.25 4.828125 16.097656 4.738281 15.9375 4.652344 C 15.769531 4.5625 15.605469 4.480469 15.441406 4.40625 C 15.273438 4.328125 15.101562 4.257812 14.929688 4.1875 C 14.769531 4.128906 14.59375 4.0625 14.398438 4 C 14.179688 3.929688 14.039062 3.722656 14.039062 3.503906 L 14.039062 1.644531 C 14.039062 1.554688 14.023438 1.476562 13.996094 1.410156 C 13.96875 1.339844 13.925781 1.277344 13.867188 1.21875 C 13.808594 1.164062 13.75 1.121094 13.679688 1.09375 C 13.613281 1.066406 13.535156 1.050781 13.445312 1.050781 L 11.113281 1.050781 C 11.03125 1.050781 10.957031 1.0625 10.894531 1.089844 C 10.824219 1.117188 10.757812 1.164062 10.695312 1.226562 L 10.691406 1.226562 C 10.636719 1.285156 10.59375 1.347656 10.566406 1.414062 C 10.535156 1.480469 10.523438 1.558594 10.523438 1.644531 L 10.523438 3.34375 C 10.523438 3.605469 10.335938 3.820312 10.089844 3.863281 C 9.902344 3.90625 9.730469 3.953125 9.574219 4 C 9.402344 4.054688 9.230469 4.113281 9.054688 4.179688 C 9.046875 4.183594 9.039062 4.1875 9.03125 4.191406 C 8.878906 4.25 8.71875 4.316406 8.550781 4.394531 C 8.378906 4.472656 8.222656 4.554688 8.074219 4.632812 C 7.867188 4.746094 7.617188 4.703125 7.457031 4.546875 L 6.113281 3.226562 C 6.109375 3.222656 6.105469 3.21875 6.101562 3.214844 C 6.046875 3.152344 5.984375 3.109375 5.921875 3.082031 C 5.863281 3.054688 5.789062 3.042969 5.707031 3.042969 C 5.625 3.042969 5.550781 3.054688 5.484375 3.082031 C 5.414062 3.113281 5.34375 3.160156 5.277344 3.226562 L 3.652344 4.855469 L 3.652344 4.859375 C 3.585938 4.925781 3.539062 4.992188 3.511719 5.058594 C 3.484375 5.121094 3.46875 5.195312 3.46875 5.28125 C 3.46875 5.367188 3.484375 5.445312 3.511719 5.511719 C 3.539062 5.578125 3.585938 5.640625 3.648438 5.703125 L 3.652344 5.707031 L 4.859375 6.917969 C 5.039062 7.101562 5.058594 7.382812 4.921875 7.585938 C 4.828125 7.726562 4.738281 7.878906 4.652344 8.039062 C 4.5625 8.207031 4.480469 8.371094 4.40625 8.535156 C 4.328125 8.703125 4.257812 8.875 4.1875 9.050781 C 4.125 9.207031 4.0625 9.382812 4 9.578125 C 3.925781 9.796875 3.722656 9.9375 3.5 9.9375 L 1.644531 9.9375 C 1.554688 9.9375 1.476562 9.953125 1.410156 9.980469 C 1.339844 10.007812 1.277344 10.050781 1.222656 10.105469 L 1.21875 10.109375 C 1.164062 10.167969 1.121094 10.230469 1.09375 10.296875 C 1.066406 10.363281 1.050781 10.441406 1.050781 10.53125 L 1.050781 12.863281 C 1.050781 12.945312 1.0625 13.019531 1.089844 13.082031 C 1.117188 13.152344 1.164062 13.21875 1.226562 13.285156 C 1.285156 13.339844 1.347656 13.382812 1.414062 13.410156 C 1.480469 13.4375 1.558594 13.453125 1.644531 13.453125 L 3.34375 13.453125 C 3.605469 13.453125 3.820312 13.640625 3.863281 13.886719 C 3.90625 14.074219 3.953125 14.246094 4 14.402344 C 4.054688 14.574219 4.113281 14.746094 4.179688 14.921875 C 4.246094 15.085938 4.316406 15.257812 4.398438 15.4375 C 4.480469 15.617188 4.558594 15.785156 4.636719 15.933594 C 4.746094 16.140625 4.703125 16.390625 4.542969 16.546875 L 3.214844 17.875 C 3.152344 17.929688 3.109375 17.992188 3.082031 18.054688 C 3.054688 18.113281 3.042969 18.1875 3.042969 18.269531 C 3.042969 18.351562 3.054688 18.425781 3.082031 18.492188 C 3.113281 18.5625 3.160156 18.632812 3.226562 18.699219 L 4.847656 20.335938 C 4.910156 20.394531 4.976562 20.4375 5.046875 20.464844 C 5.117188 20.492188 5.195312 20.507812 5.28125 20.507812 C 5.371094 20.507812 5.453125 20.492188 5.523438 20.464844 C 5.589844 20.4375 5.652344 20.398438 5.714844 20.34375 L 6.914062 19.121094 C 7.097656 18.9375 7.378906 18.914062 7.585938 19.058594 C 7.726562 19.148438 7.878906 19.238281 8.039062 19.324219 C 8.207031 19.414062 8.371094 19.496094 8.535156 19.570312 C 8.703125 19.648438 8.875 19.71875 9.050781 19.789062 C 9.207031 19.847656 9.382812 19.914062 9.578125 19.976562 C 9.796875 20.046875 9.9375 20.253906 9.9375 20.472656 L 9.9375 22.332031 C 9.9375 22.421875 9.953125 22.5 9.980469 22.566406 C 10.007812 22.636719 10.050781 22.699219 10.105469 22.753906 L 10.109375 22.757812 L 10.109375 22.753906 C 10.222656 22.871094 10.363281 22.925781 10.53125 22.925781 L 12.863281 22.925781 C 12.945312 22.925781 13.019531 22.914062 13.082031 22.886719 C 13.152344 22.859375 13.21875 22.8125 13.28125 22.75 L 13.285156 22.75 C 13.339844 22.691406 13.382812 22.628906 13.410156 22.5625 C 13.4375 22.496094 13.453125 22.417969 13.453125 22.332031 L 13.453125 20.632812 C 13.453125 20.375 13.640625 20.15625 13.886719 20.113281 C 14.074219 20.070312 14.246094 20.023438 14.402344 19.976562 C 14.574219 19.921875 14.746094 19.863281 14.921875 19.796875 C 15.085938 19.730469 15.257812 19.660156 15.4375 19.578125 C 15.617188 19.496094 15.785156 19.417969 15.933594 19.339844 C 16.140625 19.230469 16.390625 19.273438 16.546875 19.433594 L 17.875 20.761719 C 17.929688 20.824219 17.992188 20.867188 18.054688 20.894531 C 18.117188 20.921875 18.191406 20.933594 18.277344 20.933594 C 18.363281 20.933594 18.4375 20.921875 18.503906 20.894531 C 18.570312 20.863281 18.628906 20.820312 18.683594 20.761719 C 18.691406 20.757812 18.699219 20.75 18.703125 20.742188 L 20.335938 19.128906 C 20.394531 19.066406 20.4375 19 20.464844 18.929688 C 20.492188 18.863281 20.507812 18.78125 20.507812 18.695312 C 20.507812 18.605469 20.492188 18.523438 20.464844 18.453125 C 20.4375 18.386719 20.398438 18.324219 20.34375 18.265625 L 19.121094 17.0625 C 18.9375 16.878906 18.914062 16.597656 19.058594 16.390625 C 19.148438 16.25 19.238281 16.097656 19.324219 15.9375 C 19.414062 15.769531 19.496094 15.605469 19.570312 15.441406 C 19.648438 15.273438 19.71875 15.101562 19.789062 14.925781 C 19.847656 14.769531 19.914062 14.59375 19.976562 14.398438 C 20.046875 14.179688 20.253906 14.039062 20.476562 14.039062 L 22.332031 14.039062 C 22.421875 14.039062 22.5 14.023438 22.566406 13.996094 C 22.636719 13.96875 22.699219 13.925781 22.753906 13.871094 L 22.757812 13.867188 C 22.8125 13.808594 22.855469 13.746094 22.882812 13.679688 C 22.910156 13.613281 22.925781 13.535156 22.925781 13.445312 L 22.925781 11.113281 C 22.925781 11.03125 22.914062 10.957031 22.886719 10.894531 C 22.859375 10.824219 22.8125 10.757812 22.75 10.691406 C 22.691406 10.632812 22.628906 10.59375 22.5625 10.566406 C 22.496094 10.535156 22.417969 10.523438 22.332031 10.523438 L 20.632812 10.523438 C 20.371094 10.523438 20.152344 10.332031 20.113281 10.082031 C 20.070312 9.917969 20.023438 9.75 19.972656 9.582031 C 19.921875 9.417969 19.863281 9.246094 19.792969 9.066406 C 19.789062 9.054688 19.785156 9.046875 19.785156 9.039062 C 19.71875 8.863281 19.652344 8.703125 19.582031 8.550781 C 19.507812 8.386719 19.425781 8.226562 19.34375 8.074219 C 19.230469 7.867188 19.269531 7.617188 19.429688 7.457031 L 20.75 6.113281 C 20.753906 6.109375 20.757812 6.105469 20.761719 6.101562 C 20.824219 6.046875 20.867188 5.984375 20.894531 5.921875 C 20.921875 5.863281 20.933594 5.789062 20.933594 5.707031 C 20.933594 5.625 20.921875 5.550781 20.894531 5.484375 C 20.863281 5.414062 20.816406 5.34375 20.75 5.277344 L 19.121094 3.652344 Z M 19.324219 2.546875 C 19.519531 2.628906 19.699219 2.75 19.859375 2.910156 L 21.492188 4.539062 L 21.496094 4.542969 C 21.65625 4.703125 21.777344 4.878906 21.859375 5.074219 C 21.941406 5.273438 21.984375 5.484375 21.984375 5.707031 C 21.984375 5.933594 21.941406 6.144531 21.855469 6.339844 C 21.769531 6.535156 21.648438 6.707031 21.488281 6.859375 L 20.441406 7.921875 C 20.472656 7.984375 20.503906 8.050781 20.53125 8.117188 C 20.617188 8.300781 20.695312 8.480469 20.765625 8.664062 C 20.769531 8.675781 20.769531 8.683594 20.773438 8.691406 C 20.84375 8.875 20.910156 9.066406 20.972656 9.273438 C 20.996094 9.339844 21.015625 9.40625 21.035156 9.472656 L 22.332031 9.472656 C 22.558594 9.472656 22.769531 9.511719 22.964844 9.597656 C 23.160156 9.675781 23.335938 9.796875 23.492188 9.957031 L 23.503906 9.964844 C 23.65625 10.125 23.773438 10.300781 23.855469 10.496094 C 23.9375 10.691406 23.976562 10.898438 23.976562 11.113281 L 23.976562 13.445312 C 23.976562 13.667969 23.9375 13.878906 23.855469 14.074219 C 23.777344 14.269531 23.65625 14.449219 23.5 14.605469 L 23.496094 14.609375 C 23.335938 14.769531 23.160156 14.890625 22.960938 14.96875 C 22.765625 15.050781 22.554688 15.089844 22.332031 15.089844 L 20.847656 15.089844 C 20.820312 15.160156 20.792969 15.230469 20.765625 15.304688 C 20.691406 15.496094 20.609375 15.6875 20.523438 15.878906 C 20.433594 16.074219 20.339844 16.261719 20.246094 16.433594 C 20.214844 16.492188 20.183594 16.546875 20.152344 16.605469 L 21.078125 17.519531 C 21.085938 17.523438 21.09375 17.53125 21.097656 17.539062 C 21.25 17.699219 21.367188 17.878906 21.441406 18.070312 C 21.519531 18.269531 21.558594 18.476562 21.558594 18.695312 C 21.558594 18.910156 21.519531 19.117188 21.445312 19.3125 C 21.367188 19.507812 21.253906 19.683594 21.101562 19.84375 C 21.097656 19.851562 21.09375 19.855469 21.085938 19.863281 L 19.441406 21.488281 C 19.289062 21.648438 19.113281 21.773438 18.917969 21.859375 C 18.722656 21.941406 18.507812 21.984375 18.277344 21.984375 C 18.050781 21.984375 17.839844 21.941406 17.640625 21.855469 C 17.441406 21.769531 17.265625 21.644531 17.113281 21.484375 L 16.074219 20.441406 C 16.003906 20.472656 15.933594 20.503906 15.867188 20.535156 C 15.691406 20.613281 15.5 20.695312 15.300781 20.773438 C 15.109375 20.847656 14.910156 20.914062 14.707031 20.976562 C 14.636719 20.996094 14.570312 21.015625 14.503906 21.035156 L 14.503906 22.332031 C 14.503906 22.558594 14.464844 22.769531 14.378906 22.964844 C 14.300781 23.160156 14.179688 23.335938 14.019531 23.492188 L 14.011719 23.503906 C 13.851562 23.65625 13.675781 23.773438 13.480469 23.855469 C 13.285156 23.9375 13.078125 23.976562 12.863281 23.976562 L 10.53125 23.976562 C 10.074219 23.976562 9.6875 23.820312 9.367188 23.496094 C 9.207031 23.335938 9.085938 23.160156 9.007812 22.960938 C 8.925781 22.765625 8.886719 22.554688 8.886719 22.332031 L 8.886719 20.847656 C 8.816406 20.820312 8.746094 20.792969 8.671875 20.765625 C 8.480469 20.691406 8.289062 20.609375 8.097656 20.523438 C 7.902344 20.433594 7.714844 20.339844 7.542969 20.246094 C 7.484375 20.214844 7.425781 20.183594 7.371094 20.152344 L 6.457031 21.078125 C 6.453125 21.085938 6.445312 21.09375 6.4375 21.097656 C 6.277344 21.25 6.097656 21.367188 5.902344 21.441406 C 5.707031 21.519531 5.5 21.558594 5.28125 21.558594 C 5.066406 21.558594 4.859375 21.519531 4.664062 21.445312 C 4.46875 21.367188 4.292969 21.253906 4.128906 21.105469 L 4.128906 21.101562 C 4.125 21.097656 4.121094 21.09375 4.113281 21.085938 L 2.480469 19.433594 C 2.320312 19.273438 2.199219 19.097656 2.117188 18.902344 C 2.035156 18.703125 1.992188 18.492188 1.992188 18.269531 C 1.992188 18.042969 2.035156 17.832031 2.121094 17.636719 C 2.207031 17.441406 2.328125 17.269531 2.492188 17.113281 L 3.535156 16.074219 C 3.503906 16.003906 3.472656 15.933594 3.441406 15.867188 C 3.359375 15.691406 3.28125 15.5 3.203125 15.300781 C 3.128906 15.109375 3.0625 14.914062 3 14.707031 C 2.980469 14.636719 2.957031 14.570312 2.941406 14.503906 L 1.644531 14.503906 C 1.417969 14.503906 1.207031 14.464844 1.011719 14.378906 C 0.816406 14.300781 0.640625 14.179688 0.484375 14.019531 L 0.472656 14.007812 C 0.320312 13.851562 0.203125 13.675781 0.121094 13.480469 C 0.0390625 13.285156 0 13.078125 0 12.863281 L 0 10.53125 C 0 10.308594 0.0390625 10.097656 0.121094 9.902344 C 0.199219 9.707031 0.320312 9.527344 0.480469 9.367188 C 0.640625 9.207031 0.820312 9.085938 1.015625 9.007812 C 1.210938 8.925781 1.421875 8.886719 1.644531 8.886719 L 3.128906 8.886719 C 3.15625 8.816406 3.183594 8.746094 3.210938 8.671875 C 3.285156 8.480469 3.367188 8.289062 3.453125 8.097656 C 3.542969 7.902344 3.636719 7.714844 3.730469 7.542969 C 3.761719 7.484375 3.792969 7.425781 3.828125 7.367188 L 2.914062 6.453125 L 2.914062 6.449219 C 2.75 6.292969 2.628906 6.113281 2.546875 5.917969 C 2.460938 5.714844 2.417969 5.503906 2.417969 5.28125 C 2.417969 5.0625 2.460938 4.851562 2.546875 4.652344 C 2.628906 4.453125 2.75 4.273438 2.910156 4.117188 L 4.539062 2.484375 L 4.542969 2.480469 C 4.703125 2.320312 4.878906 2.203125 5.074219 2.117188 C 5.273438 2.035156 5.484375 1.992188 5.707031 1.992188 C 5.933594 1.992188 6.144531 2.035156 6.339844 2.121094 C 6.535156 2.207031 6.707031 2.328125 6.859375 2.488281 L 7.921875 3.535156 C 7.984375 3.503906 8.046875 3.472656 8.109375 3.441406 C 8.273438 3.367188 8.453125 3.292969 8.652344 3.214844 C 8.660156 3.210938 8.667969 3.207031 8.675781 3.203125 C 8.867188 3.128906 9.066406 3.0625 9.269531 3 C 9.339844 2.980469 9.40625 2.957031 9.472656 2.941406 L 9.472656 1.644531 C 9.472656 1.417969 9.511719 1.207031 9.597656 1.011719 C 9.675781 0.816406 9.796875 0.640625 9.957031 0.484375 L 9.964844 0.472656 C 10.125 0.320312 10.300781 0.203125 10.496094 0.121094 C 10.691406 0.0390625 10.898438 0 11.113281 0 L 13.445312 0 C 13.667969 0 13.878906 0.0390625 14.074219 0.121094 C 14.269531 0.199219 14.449219 0.320312 14.609375 0.480469 C 14.769531 0.640625 14.890625 0.816406 14.96875 1.015625 C 15.050781 1.210938 15.089844 1.421875 15.089844 1.644531 L 15.089844 3.128906 C 15.160156 3.15625 15.230469 3.183594 15.304688 3.210938 C 15.496094 3.285156 15.6875 3.367188 15.878906 3.453125 C 16.074219 3.542969 16.261719 3.636719 16.433594 3.730469 C 16.492188 3.761719 16.550781 3.792969 16.609375 3.828125 L 17.523438 2.914062 L 17.527344 2.914062 C 17.683594 2.75 17.863281 2.628906 18.058594 2.546875 C 18.261719 2.460938 18.472656 2.417969 18.695312 2.417969 C 18.914062 2.417969 19.125 2.460938 19.324219 2.546875 Z M 11.988281 6.898438 C 12.335938 6.898438 12.675781 6.929688 13.003906 6.996094 C 13.332031 7.0625 13.652344 7.160156 13.972656 7.296875 L 13.976562 7.296875 C 14.28125 7.425781 14.570312 7.582031 14.84375 7.765625 C 15.113281 7.949219 15.363281 8.152344 15.59375 8.378906 L 15.597656 8.382812 C 15.824219 8.613281 16.027344 8.863281 16.210938 9.132812 C 16.394531 9.40625 16.550781 9.695312 16.679688 10 C 16.6875 10.015625 16.691406 10.03125 16.699219 10.042969 C 16.824219 10.351562 16.917969 10.660156 16.980469 10.972656 C 17.046875 11.300781 17.078125 11.640625 17.078125 11.988281 C 17.078125 12.335938 17.046875 12.675781 16.980469 13.003906 C 16.914062 13.332031 16.816406 13.652344 16.679688 13.972656 L 16.679688 13.976562 C 16.550781 14.28125 16.394531 14.570312 16.210938 14.84375 C 16.027344 15.113281 15.824219 15.363281 15.597656 15.59375 L 15.59375 15.597656 C 15.363281 15.824219 15.113281 16.027344 14.84375 16.210938 C 14.570312 16.394531 14.28125 16.550781 13.976562 16.679688 C 13.960938 16.6875 13.949219 16.691406 13.933594 16.699219 C 13.625 16.824219 13.316406 16.917969 13.003906 16.980469 C 12.675781 17.046875 12.335938 17.078125 11.988281 17.078125 C 11.640625 17.078125 11.300781 17.046875 10.972656 16.980469 C 10.644531 16.914062 10.324219 16.816406 10.003906 16.679688 L 10 16.679688 C 9.695312 16.550781 9.40625 16.394531 9.132812 16.210938 C 8.863281 16.027344 8.613281 15.824219 8.382812 15.597656 L 8.378906 15.59375 C 8.152344 15.363281 7.949219 15.113281 7.765625 14.84375 C 7.585938 14.570312 7.425781 14.28125 7.296875 13.976562 C 7.289062 13.960938 7.285156 13.949219 7.277344 13.933594 C 7.152344 13.625 7.058594 13.316406 6.996094 13.003906 C 6.929688 12.675781 6.898438 12.335938 6.898438 11.988281 C 6.898438 11.640625 6.929688 11.300781 6.996094 10.972656 C 7.0625 10.644531 7.160156 10.324219 7.296875 10.003906 L 7.296875 10 C 7.425781 9.695312 7.585938 9.40625 7.765625 9.132812 C 7.949219 8.863281 8.152344 8.613281 8.378906 8.382812 L 8.382812 8.378906 C 8.613281 8.152344 8.863281 7.949219 9.132812 7.765625 C 9.40625 7.585938 9.695312 7.425781 10 7.296875 C 10.015625 7.289062 10.03125 7.285156 10.042969 7.277344 C 10.351562 7.152344 10.660156 7.058594 10.972656 6.996094 C 11.300781 6.929688 11.640625 6.898438 11.988281 6.898438 Z M 12.800781 8.027344 C 12.539062 7.972656 12.269531 7.949219 11.988281 7.949219 C 11.710938 7.949219 11.4375 7.972656 11.175781 8.027344 C 10.921875 8.078125 10.679688 8.148438 10.445312 8.246094 C 10.4375 8.25 10.425781 8.253906 10.414062 8.257812 C 10.160156 8.371094 9.929688 8.496094 9.714844 8.636719 C 9.503906 8.78125 9.304688 8.941406 9.121094 9.121094 C 8.941406 9.304688 8.78125 9.503906 8.636719 9.71875 C 8.496094 9.929688 8.371094 10.160156 8.261719 10.414062 L 8.257812 10.414062 C 8.15625 10.65625 8.078125 10.910156 8.027344 11.175781 C 7.972656 11.4375 7.949219 11.710938 7.949219 11.988281 C 7.949219 12.265625 7.972656 12.539062 8.027344 12.800781 C 8.078125 13.054688 8.148438 13.296875 8.246094 13.53125 C 8.25 13.539062 8.253906 13.550781 8.261719 13.5625 C 8.371094 13.816406 8.496094 14.046875 8.636719 14.257812 C 8.78125 14.472656 8.941406 14.671875 9.121094 14.855469 C 9.304688 15.035156 9.503906 15.195312 9.714844 15.339844 C 9.929688 15.480469 10.160156 15.605469 10.414062 15.714844 L 10.414062 15.71875 C 10.65625 15.820312 10.910156 15.898438 11.175781 15.949219 C 11.4375 16.003906 11.710938 16.027344 11.988281 16.027344 C 12.269531 16.027344 12.539062 16.003906 12.800781 15.949219 C 13.054688 15.898438 13.296875 15.828125 13.53125 15.730469 C 13.539062 15.726562 13.550781 15.722656 13.5625 15.714844 C 13.816406 15.605469 14.046875 15.480469 14.261719 15.339844 C 14.472656 15.195312 14.671875 15.035156 14.855469 14.855469 C 15.035156 14.671875 15.195312 14.472656 15.339844 14.257812 C 15.480469 14.046875 15.609375 13.816406 15.714844 13.5625 L 15.71875 13.5625 C 15.820312 13.320312 15.898438 13.066406 15.949219 12.800781 C 16.003906 12.539062 16.027344 12.265625 16.027344 11.988281 C 16.027344 11.710938 16.003906 11.4375 15.949219 11.175781 C 15.898438 10.921875 15.828125 10.679688 15.730469 10.445312 C 15.726562 10.4375 15.722656 10.425781 15.714844 10.414062 C 15.609375 10.160156 15.480469 9.929688 15.339844 9.71875 C 15.195312 9.503906 15.035156 9.304688 14.855469 9.121094 C 14.671875 8.941406 14.472656 8.78125 14.261719 8.636719 C 14.046875 8.496094 13.816406 8.371094 13.5625 8.261719 L 13.5625 8.257812 C 13.320312 8.15625 13.066406 8.078125 12.800781 8.027344 Z M 12.800781 8.027344 "/>
</g>
</svg>
