<?xml version="1.0" encoding="UTF-8"?>
<svg xmlns="http://www.w3.org/2000/svg" xmlns:xlink="http://www.w3.org/1999/xlink" width="24px" height="24px" viewBox="0 0 24 24" version="1.1">
<g id="surface1">
<path style=" stroke:none;fill-rule:nonzero;fill:rgb(0%,0%,0%);fill-opacity:1;" d="M 5.503906 4.121094 L 17.121094 4.121094 C 19.003906 4.121094 20.714844 5.242188 21.957031 7.042969 C 23.203125 8.847656 23.976562 11.332031 23.976562 14.066406 C 23.976562 16.796875 23.203125 19.285156 21.957031 21.089844 C 20.714844 22.890625 19.003906 24.007812 17.121094 24.007812 L 4.195312 24.007812 L 4.195312 17.875 L 17.121094 17.875 C 17.851562 17.875 18.515625 17.445312 18.992188 16.753906 C 19.464844 16.066406 19.761719 15.113281 19.761719 14.066406 C 19.761719 13.015625 19.464844 12.066406 18.992188 11.378906 C 18.515625 10.6875 17.851562 10.257812 17.121094 10.257812 L 5.503906 10.257812 L 5.503906 14.550781 L 0 7.429688 L 5.503906 0 Z M 5.503906 4.121094 "/>
</g>
</svg>
