<svg width="18" height="18" viewBox="0 0 18 18" fill="none" xmlns="http://www.w3.org/2000/svg">
<path fill-rule="evenodd" clip-rule="evenodd" d="M15.2415 11.4045C14.8342 12.2693 14.6306 12.7018 14.6849 13.0134C14.7393 13.325 15.0155 13.6013 15.568 14.1537L17.1785 15.7643C17.3774 15.9632 17.3872 16.2757 17.1817 16.4812L16.4812 17.1817C16.2841 17.3788 15.9717 17.3859 15.7643 17.1785L14.1537 15.568C13.6013 15.0155 13.325 14.7393 13.0134 14.6849C12.7018 14.6306 12.2693 14.8342 11.4045 15.2415C10.3715 15.728 9.21749 16 8 16C3.58172 16 0 12.4183 0 8C0 3.58172 3.58172 0 8 0C12.4183 0 16 3.58172 16 8C16 9.21749 15.728 10.3715 15.2415 11.4045ZM8 14C11.3137 14 14 11.3137 14 8C14 4.68629 11.3137 2 8 2C4.68629 2 2 4.68629 2 8C2 11.3137 4.68629 14 8 14Z" fill="#AEAEAE"/>
</svg>
