<?xml version="1.0" encoding="UTF-8"?>
<svg xmlns="http://www.w3.org/2000/svg" xmlns:xlink="http://www.w3.org/1999/xlink" width="24px" height="27px" viewBox="0 0 24 27" version="1.1">
<g id="surface1">
<path style=" stroke:none;fill-rule:nonzero;fill:rgb(0%,0%,0%);fill-opacity:1;" d="M 1.082031 1.988281 L 8.492188 1.988281 L 8.492188 1.359375 C 8.492188 1.335938 8.496094 1.316406 8.496094 1.296875 C 8.515625 0.949219 8.667969 0.628906 8.902344 0.398438 L 8.898438 0.398438 C 9.144531 0.15625 9.484375 0.00390625 9.859375 0.00390625 L 9.867188 0.00390625 L 9.867188 0 L 14.292969 0 C 14.316406 0 14.339844 0.00390625 14.363281 0.00390625 C 14.714844 0.0234375 15.035156 0.171875 15.265625 0.402344 C 15.511719 0.644531 15.664062 0.980469 15.667969 1.347656 L 15.667969 1.988281 L 22.984375 1.988281 C 23.015625 1.988281 23.046875 1.992188 23.074219 1.996094 C 23.339844 2.019531 23.578125 2.132812 23.75 2.304688 C 23.941406 2.492188 24.058594 2.753906 24.0625 3.042969 L 24.0625 3.050781 L 24.066406 3.050781 L 24.066406 5.4375 C 24.066406 5.757812 23.800781 6.019531 23.472656 6.019531 L 0.59375 6.019531 C 0.265625 6.019531 0 5.757812 0 5.4375 L 0 3.054688 C 0 3.03125 0 3.007812 0.00390625 2.984375 L 0.00390625 2.980469 C 0.0234375 2.714844 0.144531 2.476562 0.320312 2.300781 C 0.511719 2.113281 0.777344 1.996094 1.070312 1.992188 L 1.074219 1.992188 L 1.074219 1.988281 Z M 17.285156 10.777344 L 15.964844 10.777344 L 15.964844 23.089844 L 17.285156 23.089844 Z M 12.992188 10.777344 L 11.667969 10.777344 L 11.667969 23.089844 L 12.992188 23.089844 Z M 8.695312 10.777344 L 7.375 10.777344 L 7.375 23.089844 L 8.695312 23.089844 Z M 2.410156 6.929688 L 21.828125 6.929688 L 21.890625 6.933594 L 21.917969 6.933594 L 21.945312 6.9375 L 21.949219 6.9375 L 21.984375 6.941406 C 22.289062 6.976562 22.570312 7.117188 22.777344 7.316406 C 23.011719 7.542969 23.15625 7.847656 23.15625 8.1875 C 23.15625 8.210938 23.15625 8.230469 23.152344 8.25 L 23.152344 8.265625 L 23.148438 8.300781 L 21.507812 25.714844 L 21.503906 25.722656 L 21.507812 25.722656 L 21.503906 25.753906 L 21.492188 25.816406 L 21.492188 25.820312 C 21.480469 25.894531 21.464844 25.964844 21.445312 26.023438 L 21.445312 26.03125 L 21.441406 26.03125 L 21.441406 26.035156 L 21.4375 26.046875 L 21.433594 26.054688 C 21.410156 26.132812 21.375 26.207031 21.339844 26.273438 C 21.113281 26.6875 20.699219 26.972656 20.183594 26.972656 L 3.972656 26.972656 L 3.964844 26.96875 C 3.863281 26.964844 3.765625 26.949219 3.679688 26.925781 C 3.585938 26.902344 3.496094 26.863281 3.414062 26.816406 L 3.410156 26.816406 C 3.011719 26.601562 2.75 26.183594 2.707031 25.714844 L 1.085938 8.296875 L 1.082031 8.269531 L 1.078125 8.214844 L 1.078125 8.1875 C 1.078125 7.847656 1.226562 7.542969 1.457031 7.316406 C 1.671875 7.105469 1.972656 6.964844 2.292969 6.9375 L 2.320312 6.9375 L 2.320312 6.933594 L 2.410156 6.933594 Z M 21.828125 8.101562 L 2.410156 8.101562 L 2.410156 8.097656 L 2.382812 8.101562 C 2.347656 8.105469 2.3125 8.125 2.285156 8.148438 C 2.269531 8.164062 2.261719 8.175781 2.261719 8.1875 L 2.261719 8.214844 L 3.878906 25.609375 L 3.878906 25.613281 C 3.886719 25.695312 3.925781 25.761719 3.980469 25.792969 L 3.996094 25.800781 L 4.011719 25.804688 L 20.183594 25.804688 C 20.230469 25.804688 20.273438 25.769531 20.296875 25.71875 L 20.316406 25.675781 L 20.328125 25.628906 L 20.332031 25.597656 L 21.972656 8.210938 L 21.972656 8.1875 C 21.972656 8.179688 21.964844 8.164062 21.949219 8.148438 C 21.925781 8.125 21.886719 8.105469 21.851562 8.101562 Z M 21.851562 8.101562 L 21.847656 8.101562 Z M 21.972656 8.210938 Z M 23.152344 8.296875 L 23.152344 8.300781 Z M 9.085938 3.160156 L 1.183594 3.160156 L 1.183594 4.851562 L 22.878906 4.851562 L 22.878906 3.160156 L 15.078125 3.160156 C 14.75 3.160156 14.484375 2.898438 14.484375 2.574219 L 14.484375 1.355469 C 14.484375 1.304688 14.460938 1.257812 14.429688 1.226562 C 14.398438 1.195312 14.355469 1.175781 14.3125 1.171875 L 9.867188 1.171875 L 9.867188 1.167969 C 9.816406 1.171875 9.773438 1.191406 9.738281 1.226562 L 9.734375 1.226562 C 9.707031 1.253906 9.683594 1.292969 9.675781 1.335938 L 9.679688 1.359375 L 9.679688 2.574219 C 9.679688 2.898438 9.414062 3.160156 9.085938 3.160156 Z M 9.085938 3.160156 "/>
</g>
</svg>
